Coordinates
version=1
nRows=30
nColumns=19
inDegrees=yes

Units are S.I. units (second, meters, Newtons, ...)
If the header above contains a line with 'inDegrees', this indicates whether rotational values are in degrees (yes) or radians (no).

endheader
time	pelvis_tilt	pelvis_list	pelvis_rotation	pelvis_tx	pelvis_ty	pelvis_tz	hip_flexion_r	hip_adduction_r	hip_rotation_r	knee_angle_r	knee_angle_r_beta	ankle_angle_r	hip_flexion_l	hip_adduction_l	hip_rotation_l	knee_angle_l	knee_angle_l_beta	ankle_angle_l
     16.76666667	    -16.22912100	     11.09464522	      3.69550509	      2.05984493	      0.90978958	      0.96911457	    -12.48891155	    -15.68650520	    -11.06631423	     57.20289261	      0.99837882	    -15.81588560	     44.72259331	     12.62857571	    -17.03837097	     18.60049095	      0.32463981	      8.46358352
     16.77333333	    -15.98610011	     11.60648841	      3.95281578	      2.05958015	      0.90577939	      0.96908990	    -11.31330761	    -16.28620231	    -10.47795782	     61.76177143	      1.07794626	    -15.89946263	     44.58042524	     12.85299205	    -18.30493580	     21.10612805	      0.36837143	      8.25539815
     16.78000000	    -15.62937284	     12.07534619	      4.22990224	      2.05927719	      0.90168758	      0.96923327	    -10.15735554	    -16.79397182	     -9.92148091	     66.23061120	      1.15594223	    -15.87095112	     44.36310743	     12.94844334	    -19.46239257	     24.19793966	      0.42233372	      8.15248607
     16.78666667	    -14.86005862	     12.61301675	      4.72158874	      2.05909494	      0.89783463	      0.96929873	     -9.54286733	    -17.33281077	     -9.83932887	     70.46741351	      1.22988838	    -15.70555163	     43.62642500	     13.25415062	    -20.15874877	     27.56888357	      0.48116779	      8.26268253
     16.79333333	    -14.74003991	     12.68519852	      4.89111252	      2.05837249	      0.89339390	      0.96978604	     -7.67880450	    -17.35269883	     -8.89051495	     74.82590670	      1.30595844	    -15.40342148	     43.58329487	     12.89344472	    -20.64970044	     31.16824156	      0.54398844	      8.68337321
     16.80000000	    -13.94870297	     13.03751349	      5.35544582	      2.05780261	      0.88967577	      0.96994132	     -6.76456187	    -17.68244871	     -8.68412119	     78.82738401	      1.37579739	    -14.90863031	     42.59912491	     13.13700655	    -20.55181178	     34.56378397	      0.60325183	      9.49348603
     16.80666667	    -13.76401974	     12.77281753	      5.67734208	      2.05655115	      0.88572471	      0.97017637	     -4.69667300	    -17.30503748	     -7.86372225	     82.81925120	      1.44546862	    -14.40224272	     42.21210088	     12.82520658	    -19.93313344	     37.93109072	      0.66202242	     10.72750268
     16.81333333	    -13.44993522	     12.62036316	      6.14786803	      2.05515049	      0.88226270	      0.97011397	     -2.75061119	    -17.09570853	     -7.31197643	     86.55781866	      1.51071893	    -13.78785428	     41.45572593	     12.87261986	    -18.93821542	     40.91793986	      0.71415277	     12.33724297
     16.82000000	    -13.01795813	     12.38229768	      6.56324336	      2.05345369	      0.87947557	      0.96996308	     -0.74615987	    -16.81228330	     -6.72523913	     90.04817314	      1.57163711	    -13.08732669	     40.35359697	     12.93387471	    -17.71163106	     43.52329663	      0.75962483	     14.27692253
     16.82666667	    -12.47201458	     12.27197297	      6.95020191	      2.05166294	      0.87747408	      0.96963239	      1.24640915	    -16.72780235	     -6.15714585	     93.23500640	      1.62725784	    -12.35727031	     38.82625171	     13.20209786	    -16.42685592	     45.59002407	      0.79569603	     16.50078641
     16.83333333	    -12.67964575	     11.47352807	      7.26002177	      2.04926836	      0.87538120	      0.96928970	      4.51101963	    -15.83273243	     -5.18825174	     96.24230837	      1.67974516	    -11.80620463	     38.01909302	     12.83743499	    -14.87775242	     47.46339154	      0.82839246	     18.74329124
     16.84000000	    -12.56636245	     10.95866130	      7.45920128	      2.04701295	      0.87432409	      0.96891376	      7.44926798	    -15.30491088	     -4.31725279	     98.84334812	      1.72514187	    -11.10267892	     36.50346395	     12.70896015	    -13.49281286	     48.68462509	      0.84970700	     20.98680992
     16.84666667	    -11.95339976	     10.72245309	      7.65953296	      2.04494468	      0.87461972	      0.96831611	      9.79353584	    -15.15412068	     -3.67034620	    100.96710786	      1.76220847	    -10.48174786	     34.08896845	     12.87791810	    -12.07070647	     49.26891990	      0.85990487	     22.80505218
     16.85333333	    -12.08600154	      9.82259218	      7.40146541	      2.04291592	      0.87466144	      0.96838306	     13.34550519	    -14.02693090	     -2.45281567	    102.77221924	      1.79371361	     -9.71380599	     32.36855497	     12.05597235	    -11.08975340	     49.62066863	      0.86604404	     24.95234061
     16.86000000	    -11.76249874	      9.33690236	      7.48873669	      2.04126960	      0.87600254	      0.96772841	     16.08801814	    -13.61064170	     -1.89268260	    104.01537616	      1.81541079	     -9.00660904	     29.76627717	     11.89611377	     -9.72417574	     49.28781022	      0.86023457	     26.27604103
     16.86666667	    -11.99412503	      8.51766277	      7.05220497	      2.03979440	      0.87715213	      0.96771954	     19.69120261	    -12.61504236	     -0.88492323	    104.92671374	      1.83131663	     -8.30379188	     27.66538797	     11.02648944	     -9.08354424	     48.69187966	      0.84983362	     27.47547807
     16.87333333	    -11.78700544	      7.77119639	      6.76533595	      2.03880228	      0.87944933	      0.96737005	     22.53635428	    -11.77878724	     -0.35915171	    105.24663621	      1.83690033	     -7.55260887	     24.83317457	     10.29687864	     -8.24443856	     47.61719179	      0.83107678	     28.04230538
     16.88000000	    -11.84925223	      6.96092793	      6.70019653	      2.03820657	      0.88197747	      0.96661214	     25.44274334	    -11.08695371	     -0.28592909	    105.08844148	      1.83413931	     -6.71492631	     22.13609829	      9.58789119	     -7.27269820	     46.21142011	      0.80654143	     27.90378327
     16.88666667	    -11.53815744	      6.09003043	      5.99373579	      2.03796315	      0.88529792	      0.96660854	     27.96667969	     -9.90715165	      0.18897894	    104.49734944	      1.82382281	     -5.96028346	     18.92228970	      8.45207303	     -7.09286258	     44.46180600	      0.77600491	     27.37948363
     16.89333333	    -11.88847008	      5.15318039	      5.89245425	      2.03804779	      0.88821900	      0.96564537	     30.82674824	     -9.22097708	     -0.18308929	    103.47373025	      1.80595728	     -5.03276052	     16.36538500	      7.52928550	     -6.41871505	     42.55707720	      0.74276112	     26.23110055
     16.90000000	    -11.32693047	      4.13147102	      5.31510327	      2.03873301	      0.89261040	      0.96511896	     32.51559310	     -8.11984013	     -0.44414900	    101.92006150	      1.77884065	     -4.14350536	     12.69289879	      6.22867143	     -6.38921931	     40.27285540	      0.70289393	     24.40327347
     16.90666667	    -11.23247293	      3.09431179	      5.15423618	      2.03964796	      0.89668443	      0.96397657	     34.39114817	     -7.41050002	     -1.27622308	    100.00469569	      1.74541121	     -3.12718065	      9.53764508	      5.06218005	     -6.07834674	     37.88914302	      0.66129030	     22.01681291
     16.91333333	    -11.38110414	      1.97080470	      4.92586236	      2.04074158	      0.90064056	      0.96285162	     36.35636041	     -6.63992386	     -2.23520464	     97.75223281	      1.70609831	     -2.11670003	      6.69230868	      3.76592470	     -6.05032770	     35.44112166	      0.61856426	     19.14226924
     16.92000000	    -11.53512115	      0.87089603	      4.75880247	      2.04211105	      0.90472745	      0.96162067	     38.07546321	     -6.01938638	     -3.42880062	     95.14778762	      1.66064217	     -1.08750178	      3.87468415	      2.47928393	     -6.15474681	     32.87787019	      0.57382709	     15.73319893
     16.92666667	    -11.77318345	     -0.21025169	      4.66904509	      2.04368414	      0.90879541	      0.96028345	     39.64954801	     -5.55075875	     -4.84674117	     92.22328578	      1.60959998	     -0.02180261	      1.20549406	      1.21810062	     -6.30442250	     30.26448626	      0.52821493	     11.92321826
     16.93333333	    -12.98765071	     -1.18657890	      4.54739844	      2.04507041	      0.91161183	      0.95918404	     42.18713354	     -5.23255948	     -6.23784727	     89.14262204	      1.55583226	      1.00704468	     -0.20739482	      0.10775458	     -6.60586848	     27.91836104	      0.48726732	      7.89643675
     16.94000000	    -12.59991536	     -2.20396415	      4.36362029	      2.04721232	      0.91642857	      0.95811949	     42.61058264	     -4.77836788	     -7.91205964	     85.56215555	      1.49334133	      2.02783747	     -3.56065447	     -1.12388638	     -7.03195832	     24.99807521	      0.43629872	      3.52181278
     16.94666667	    -13.10117664	     -3.08495330	      4.16767387	      2.04899450	      0.91995124	      0.95733479	     43.93293445	     -4.48027213	     -9.55117973	     81.87250840	      1.42894484	      2.95693942	     -5.73398963	     -2.15275082	     -7.46263677	     22.41695603	      0.39124969	     -0.77211966
     16.95333333	    -13.57293631	     -3.90310422	      4.04936775	      2.05080998	      0.92334550	      0.95683131	     45.02432107	     -4.25175094	    -11.35937833	     77.94582493	      1.36041128	      3.82669307	     -7.83331247	     -3.12102557	     -7.68876110	     19.93384166	      0.34791117	     -4.97053188
     16.96000000	    -14.15604209	     -4.61083517	      3.81353110	      2.05247510	      0.92633028	      0.95690195	     46.13321077	     -3.90140024	    -13.02436549	     73.83882409	      1.28873060	      4.59726482	     -9.71157839	     -3.95950658	     -7.87161365	     17.62936596	      0.30769048	     -8.92426387
